HIERARCHY
ROOT mixamorig:Hips
{
	OFFSET 0.000000 103.991501 0.000000
	CHANNELS 6 Xposition Yposition Zposition Xrotation Yrotation Zrotation
	JOINT mixamorig:Spine
	{
		OFFSET 0.000000 10.181602 0.131500
		CHANNELS 6 Xposition Yposition Zposition Xrotation Yrotation Zrotation
		JOINT mixamorig:Spine1
		{
			OFFSET 0.000000 10.083504 -1.000800
			CHANNELS 6 Xposition Yposition Zposition Xrotation Yrotation Zrotation
			JOINT mixamorig:Spine2
			{
				OFFSET 0.000000 9.100006 -1.373400
				CHANNELS 6 Xposition Yposition Zposition Xrotation Yrotation Zrotation
				JOINT mixamorig:Neck
				{
					OFFSET 0.000000 16.671707 -2.516200
					CHANNELS 6 Xposition Yposition Zposition Xrotation Yrotation Zrotation
					JOINT mixamorig:Head
					{
						OFFSET 0.000000 9.617905 1.685000
						CHANNELS 6 Xposition Yposition Zposition Xrotation Yrotation Zrotation
						JOINT mixamorig:HeadTop_End
						{
							OFFSET 0.000000 17.815201 2.585000
							CHANNELS 6 Xposition Yposition Zposition Xrotation Yrotation Zrotation
							End Site
							{
								OFFSET 0.000000 13.794495 0.000000
							}
						}
						JOINT mixamorig:LeftEye
						{
							OFFSET 3.067600 6.409500 9.283600
							CHANNELS 6 Xposition Yposition Zposition Xrotation Yrotation Zrotation
							End Site
							{
								OFFSET 0.000000 13.794495 0.000000
							}
						}
						JOINT mixamorig:RightEye
						{
							OFFSET -3.067600 6.409500 9.283500
							CHANNELS 6 Xposition Yposition Zposition Xrotation Yrotation Zrotation
							End Site
							{
								OFFSET 0.000000 13.794495 0.000000
							}
						}
					}
				}
				JOINT mixamorig:LeftShoulder
				{
					OFFSET 4.570400 10.945999 -2.628000
					CHANNELS 6 Xposition Yposition Zposition Xrotation Yrotation Zrotation
					JOINT mixamorig:LeftArm
					{
						OFFSET 10.592400 -0.524597 -2.232100
						CHANNELS 6 Xposition Yposition Zposition Xrotation Yrotation Zrotation
						JOINT mixamorig:LeftForeArm
						{
							OFFSET 27.841499 0.000000 0.000000
							CHANNELS 6 Xposition Yposition Zposition Xrotation Yrotation Zrotation
							JOINT mixamorig:LeftHand
							{
								OFFSET 28.328800 0.000000 0.000000
								CHANNELS 6 Xposition Yposition Zposition Xrotation Yrotation Zrotation
								JOINT mixamorig:LeftHandThumb1
								{
									OFFSET 2.466103 -1.576218 2.681689
									CHANNELS 6 Xposition Yposition Zposition Xrotation Yrotation Zrotation
									JOINT mixamorig:LeftHandThumb2
									{
										OFFSET 3.229782 -1.864716 1.864716
										CHANNELS 6 Xposition Yposition Zposition Xrotation Yrotation Zrotation
										JOINT mixamorig:LeftHandThumb3
										{
											OFFSET 2.652611 -1.531494 1.531488
											CHANNELS 6 Xposition Yposition Zposition Xrotation Yrotation Zrotation
											JOINT mixamorig:LeftHandThumb4
											{
												OFFSET 1.954605 -1.128494 1.128493
												CHANNELS 6 Xposition Yposition Zposition Xrotation Yrotation Zrotation
												End Site
												{
													OFFSET -0.000404 2.523392 0.000683
												}
											}
										}
									}
								}
								JOINT mixamorig:LeftHandIndex1
								{
									OFFSET 9.109299 -0.518112 2.259867
									CHANNELS 6 Xposition Yposition Zposition Xrotation Yrotation Zrotation
									JOINT mixamorig:LeftHandIndex2
									{
										OFFSET 3.676399 0.000000 0.000000
										CHANNELS 6 Xposition Yposition Zposition Xrotation Yrotation Zrotation
										JOINT mixamorig:LeftHandIndex3
										{
											OFFSET 2.883102 0.000000 0.000000
											CHANNELS 6 Xposition Yposition Zposition Xrotation Yrotation Zrotation
											JOINT mixamorig:LeftHandIndex4
											{
												OFFSET 2.392700 0.000000 0.000000
												CHANNELS 6 Xposition Yposition Zposition Xrotation Yrotation Zrotation
												End Site
												{
													OFFSET 0.000000 2.392700 0.001080
												}
											}
										}
									}
								}
								JOINT mixamorig:LeftHandMiddle1
								{
									OFFSET 9.533401 0.000000 0.000000
									CHANNELS 6 Xposition Yposition Zposition Xrotation Yrotation Zrotation
									JOINT mixamorig:LeftHandMiddle2
									{
										OFFSET 3.698196 0.000000 0.000000
										CHANNELS 6 Xposition Yposition Zposition Xrotation Yrotation Zrotation
										JOINT mixamorig:LeftHandMiddle3
										{
											OFFSET 2.950897 0.000000 0.000000
											CHANNELS 6 Xposition Yposition Zposition Xrotation Yrotation Zrotation
											JOINT mixamorig:LeftHandMiddle4
											{
												OFFSET 2.833900 0.000000 0.000000
												CHANNELS 6 Xposition Yposition Zposition Xrotation Yrotation Zrotation
												End Site
												{
													OFFSET 0.000000 2.833893 0.001278
												}
											}
										}
									}
								}
								JOINT mixamorig:LeftHandRing1
								{
									OFFSET 9.104500 -0.043060 -1.865119
									CHANNELS 6 Xposition Yposition Zposition Xrotation Yrotation Zrotation
									JOINT mixamorig:LeftHandRing2
									{
										OFFSET 3.153999 0.000000 0.000000
										CHANNELS 6 Xposition Yposition Zposition Xrotation Yrotation Zrotation
										JOINT mixamorig:LeftHandRing3
										{
											OFFSET 2.937698 0.000000 0.000000
											CHANNELS 6 Xposition Yposition Zposition Xrotation Yrotation Zrotation
											JOINT mixamorig:LeftHandRing4
											{
												OFFSET 2.647499 0.000000 0.000000
												CHANNELS 6 Xposition Yposition Zposition Xrotation Yrotation Zrotation
												End Site
												{
													OFFSET 0.000000 2.647507 0.001195
												}
											}
										}
									}
								}
								JOINT mixamorig:LeftHandPinky1
								{
									OFFSET 8.077797 -0.486984 -3.806321
									CHANNELS 6 Xposition Yposition Zposition Xrotation Yrotation Zrotation
									JOINT mixamorig:LeftHandPinky2
									{
										OFFSET 3.599998 0.000000 0.000000
										CHANNELS 6 Xposition Yposition Zposition Xrotation Yrotation Zrotation
										JOINT mixamorig:LeftHandPinky3
										{
											OFFSET 2.114197 0.000000 0.000000
											CHANNELS 6 Xposition Yposition Zposition Xrotation Yrotation Zrotation
											JOINT mixamorig:LeftHandPinky4
											{
												OFFSET 1.975700 0.000000 0.000000
												CHANNELS 6 Xposition Yposition Zposition Xrotation Yrotation Zrotation
												End Site
												{
													OFFSET 0.000000 1.975693 0.000892
												}
											}
										}
									}
								}
							}
						}
					}
				}
				JOINT mixamorig:RightShoulder
				{
					OFFSET -4.570000 10.946198 -2.628000
					CHANNELS 6 Xposition Yposition Zposition Xrotation Yrotation Zrotation
					JOINT mixamorig:RightArm
					{
						OFFSET -10.592800 -0.524796 -2.232100
						CHANNELS 6 Xposition Yposition Zposition Xrotation Yrotation Zrotation
						JOINT mixamorig:RightForeArm
						{
							OFFSET -27.841499 0.000000 0.000000
							CHANNELS 6 Xposition Yposition Zposition Xrotation Yrotation Zrotation
							JOINT mixamorig:RightHand
							{
								OFFSET -28.328800 0.000000 0.000000
								CHANNELS 6 Xposition Yposition Zposition Xrotation Yrotation Zrotation
								JOINT mixamorig:RightHandPinky1
								{
									OFFSET -8.076698 -0.486725 -3.806227
									CHANNELS 6 Xposition Yposition Zposition Xrotation Yrotation Zrotation
									JOINT mixamorig:RightHandPinky2
									{
										OFFSET -3.599998 0.000000 0.000000
										CHANNELS 6 Xposition Yposition Zposition Xrotation Yrotation Zrotation
										JOINT mixamorig:RightHandPinky3
										{
											OFFSET -2.114197 0.000000 0.000000
											CHANNELS 6 Xposition Yposition Zposition Xrotation Yrotation Zrotation
											JOINT mixamorig:RightHandPinky4
											{
												OFFSET -1.975700 0.000000 0.000000
												CHANNELS 6 Xposition Yposition Zposition Xrotation Yrotation Zrotation
												End Site
												{
													OFFSET 0.000000 1.975693 0.000919
												}
											}
										}
									}
								}
								JOINT mixamorig:RightHandRing1
								{
									OFFSET -9.103600 -0.043030 -1.865120
									CHANNELS 6 Xposition Yposition Zposition Xrotation Yrotation Zrotation
									JOINT mixamorig:RightHandRing2
									{
										OFFSET -3.153999 0.000000 0.000000
										CHANNELS 6 Xposition Yposition Zposition Xrotation Yrotation Zrotation
										JOINT mixamorig:RightHandRing3
										{
											OFFSET -2.937698 0.000000 0.000000
											CHANNELS 6 Xposition Yposition Zposition Xrotation Yrotation Zrotation
											JOINT mixamorig:RightHandRing4
											{
												OFFSET -2.647499 0.000000 0.000000
												CHANNELS 6 Xposition Yposition Zposition Xrotation Yrotation Zrotation
												End Site
												{
													OFFSET 0.000000 2.647507 0.001231
												}
											}
										}
									}
								}
								JOINT mixamorig:RightHandMiddle1
								{
									OFFSET -9.532501 0.000000 0.000000
									CHANNELS 6 Xposition Yposition Zposition Xrotation Yrotation Zrotation
									JOINT mixamorig:RightHandMiddle2
									{
										OFFSET -3.698196 0.000000 0.000000
										CHANNELS 6 Xposition Yposition Zposition Xrotation Yrotation Zrotation
										JOINT mixamorig:RightHandMiddle3
										{
											OFFSET -2.950897 0.000000 0.000000
											CHANNELS 6 Xposition Yposition Zposition Xrotation Yrotation Zrotation
											JOINT mixamorig:RightHandMiddle4
											{
												OFFSET -2.833900 0.000000 0.000000
												CHANNELS 6 Xposition Yposition Zposition Xrotation Yrotation Zrotation
												End Site
												{
													OFFSET 0.000000 2.833893 0.001318
												}
											}
										}
									}
								}
								JOINT mixamorig:RightHandIndex1
								{
									OFFSET -9.108299 -0.517853 2.259859
									CHANNELS 6 Xposition Yposition Zposition Xrotation Yrotation Zrotation
									JOINT mixamorig:RightHandIndex2
									{
										OFFSET -3.676399 0.000000 0.000000
										CHANNELS 6 Xposition Yposition Zposition Xrotation Yrotation Zrotation
										JOINT mixamorig:RightHandIndex3
										{
											OFFSET -2.883102 0.000000 0.000000
											CHANNELS 6 Xposition Yposition Zposition Xrotation Yrotation Zrotation
											JOINT mixamorig:RightHandIndex4
											{
												OFFSET -2.392700 0.000000 0.000000
												CHANNELS 6 Xposition Yposition Zposition Xrotation Yrotation Zrotation
												End Site
												{
													OFFSET 0.000000 2.392700 0.001113
												}
											}
										}
									}
								}
								JOINT mixamorig:RightHandThumb1
								{
									OFFSET -2.464798 -1.573944 2.681868
									CHANNELS 6 Xposition Yposition Zposition Xrotation Yrotation Zrotation
									JOINT mixamorig:RightHandThumb2
									{
										OFFSET -3.229782 -1.864716 1.864716
										CHANNELS 6 Xposition Yposition Zposition Xrotation Yrotation Zrotation
										JOINT mixamorig:RightHandThumb3
										{
											OFFSET -2.652542 -1.531448 1.531448
											CHANNELS 6 Xposition Yposition Zposition Xrotation Yrotation Zrotation
											JOINT mixamorig:RightHandThumb4
											{
												OFFSET -1.954605 -1.128494 1.128493
												CHANNELS 6 Xposition Yposition Zposition Xrotation Yrotation Zrotation
												End Site
												{
													OFFSET 0.000412 2.523392 0.000704
												}
											}
										}
									}
								}
							}
						}
					}
				}
			}
		}
	}
	JOINT mixamorig:LeftUpLeg
	{
		OFFSET 8.207800 -6.751701 -1.599600
		CHANNELS 6 Xposition Yposition Zposition Xrotation Yrotation Zrotation
		JOINT mixamorig:LeftLeg
		{
			OFFSET 0.000000 -44.370499 0.284600
			CHANNELS 6 Xposition Yposition Zposition Xrotation Yrotation Zrotation
			JOINT mixamorig:LeftFoot
			{
				OFFSET 0.000000 -44.427898 -2.982200
				CHANNELS 6 Xposition Yposition Zposition Xrotation Yrotation Zrotation
				JOINT mixamorig:LeftToeBase
				{
					OFFSET 0.000000 -8.728700 10.710600
					CHANNELS 6 Xposition Yposition Zposition Xrotation Yrotation Zrotation
					JOINT mixamorig:LeftToe_End
					{
						OFFSET 0.000000 -0.000700 9.278099
						CHANNELS 6 Xposition Yposition Zposition Xrotation Yrotation Zrotation
						End Site
						{
							OFFSET 0.000000 9.278100 0.000000
						}
					}
				}
			}
		}
	}
	JOINT mixamorig:RightUpLeg
	{
		OFFSET -8.207800 -6.751701 -1.599600
		CHANNELS 6 Xposition Yposition Zposition Xrotation Yrotation Zrotation
		JOINT mixamorig:RightLeg
		{
			OFFSET 0.000000 -44.370499 0.286200
			CHANNELS 6 Xposition Yposition Zposition Xrotation Yrotation Zrotation
			JOINT mixamorig:RightFoot
			{
				OFFSET 0.000000 -44.427700 -2.983800
				CHANNELS 6 Xposition Yposition Zposition Xrotation Yrotation Zrotation
				JOINT mixamorig:RightToeBase
				{
					OFFSET 0.000000 -8.728700 10.710600
					CHANNELS 6 Xposition Yposition Zposition Xrotation Yrotation Zrotation
					JOINT mixamorig:RightToe_End
					{
						OFFSET 0.000000 -0.000700 9.278100
						CHANNELS 6 Xposition Yposition Zposition Xrotation Yrotation Zrotation
						End Site
						{
							OFFSET 0.000000 9.278100 0.000000
						}
					}
				}
			}
		}
	}
}
MOTION
Frames: 3
Frame Time: 0.016667
18.826477 48.964256 252.781647 58.452957 3.236770 -5.239258 0.000001 10.181625 0.131482 15.401979 0.996607 1.335853 -0.000005 10.083478 -1.000794 30.832775 0.820635 0.195187 0.000002 9.100019 -1.373405 30.832785 0.820636 0.195187 0.000001 16.671724 -2.516233 0.917752 -3.311134 -8.712184 0.000001 9.617922 1.685001 19.016223 -2.255441 2.780548 -0.000000 17.815201 2.585021 -0.000001 -0.000000 0.000000 3.067599 6.409500 9.283610 -0.000001 -0.000000 0.000000 -3.067601 6.409500 9.283496 -0.000001 -0.000000 0.000000 4.570400 10.945992 -2.628044 0.536139 -5.164634 -13.171444 10.592398 -0.524609 -2.232124 -51.587971 -35.967967 -11.523448 27.841511 -0.000034 0.000002 -3.165839 -97.670537 -3.137549 28.328804 -0.000002 0.000009 47.890749 29.544827 56.816334 2.466120 -1.576221 2.681673 -32.438693 -9.019500 11.382195 3.229807 -1.864720 1.864716 10.538780 10.748528 5.622114 2.652620 -1.531492 1.531486 0.000005 0.000001 0.000003 1.954578 -1.128481 1.128490 0.000000 0.000001 -0.000001 9.109315 -0.518109 2.259847 -6.158005 -5.680384 1.002126 3.676406 -0.000014 -0.000010 0.736549 1.726172 -19.923327 2.883075 0.000005 -0.000010 -0.000002 0.000001 -0.000004 2.392702 -0.000000 0.000012 -0.000001 -0.000001 -0.000001 9.533378 -0.000001 -0.000010 -0.504554 1.355685 -4.018881 3.698233 -0.000000 0.000005 -0.029514 -0.620789 -16.552280 2.950904 -0.000019 0.000006 0.000008 -0.000001 0.000010 2.833904 -0.000000 0.000002 0.000000 -0.000001 -0.000001 9.104524 -0.043061 -1.865133 0.224077 10.268953 -12.432392 3.154040 -0.000005 -0.000002 -0.075217 0.872662 -3.901300 2.937701 -0.000001 0.000005 -0.000000 0.000001 -0.000001 2.647455 -0.000014 0.000002 0.000000 -0.000000 -0.000001 8.077809 -0.486982 -3.806340 3.049767 14.015283 -22.042480 3.599999 -0.000026 0.000005 -0.355730 0.498552 -0.033155 2.114226 0.000017 0.000004 0.000000 0.000000 -0.000003 1.975703 0.000004 -0.000001 -0.000001 -0.000000 -0.000001 -4.570003 10.946202 -2.628024 -22.971127 7.093998 -19.015446 -10.592808 -0.524778 -2.232109 -57.881844 8.236381 16.662101 -27.841503 0.000055 -0.000012 -3.445940 97.048642 3.419964 -28.328819 -0.000051 0.000001 28.347652 -30.328731 -37.803639 -8.076675 -0.486715 -3.806223 1.960064 -26.167768 7.964199 -3.599995 -0.000043 0.000011 -0.011652 0.922507 9.198959 -2.114194 -0.000001 0.000008 0.000001 0.000001 0.000002 -1.975693 0.000019 -0.000012 -0.000000 -0.000000 0.000000 -9.103617 -0.043020 -1.865123 -1.508404 -15.990948 2.137261 -3.153999 -0.000009 -0.000001 -0.155951 0.134167 19.421218 -2.937700 -0.000015 -0.000001 0.000000 -0.000000 0.000000 -2.647500 -0.000015 -0.000001 0.000000 -0.000000 0.000000 -9.532499 0.000028 0.000004 0.054787 -7.242114 -2.354322 -3.698211 0.000006 -0.000002 -0.243349 1.030506 19.360318 -2.950867 -0.000018 0.000000 -0.000002 0.000000 0.000003 -2.833907 -0.000016 -0.000008 0.000001 0.000001 -0.000000 -9.108326 -0.517847 2.259861 -4.428056 6.576770 0.630622 -3.676385 -0.000010 0.000016 0.049914 -0.570723 5.172435 -2.883079 -0.000001 -0.000005 0.000008 -0.000011 -0.000009 -2.392672 -0.000048 0.000011 -0.000001 0.000000 0.000001 -2.464790 -1.573944 2.681871 -39.613707 -0.028532 -7.741908 -3.229815 -1.864706 1.864723 6.343983 -0.854681 -9.207303 -2.652511 -1.531457 1.531441 0.000002 -0.000005 -0.000004 -1.954590 -1.128509 1.128497 -0.000003 0.000000 0.000000 8.207800 -6.751689 -1.599615 -69.196257 -14.259186 6.850114 0.000001 -44.370506 0.284611 115.908256 -1.471010 -2.434288 0.000005 -44.427895 -2.982195 -17.496388 2.446042 -0.016479 0.000005 -8.728705 10.710599 -31.006381 5.401942 -24.544599 -0.000003 -0.000680 9.278108 -0.000002 -0.000000 -0.000000 -8.207799 -6.751687 -1.599609 -72.498005 2.913587 -1.261118 0.000001 -44.370491 0.286221 114.348766 2.773388 2.240369 -0.000004 -44.427673 -2.983801 20.583950 7.461656 17.810161 -0.000004 -8.728695 10.710582 -16.460143 0.203914 0.384959 -0.000002 -0.000717 9.278102 -0.000001 -0.000000 -0.000000 
18.913107 49.048328 252.299927 58.334603 3.410699 -5.270556 0.000002 10.181629 0.131500 15.438249 1.013650 1.404649 -0.000001 10.083546 -1.000789 30.905353 0.884253 0.344495 0.000000 9.100026 -1.373397 30.905325 0.884252 0.344496 0.000002 16.671692 -2.516216 0.545235 -3.267746 -8.512362 0.000003 9.617904 1.685021 18.331500 -2.283633 3.127353 0.000001 17.815216 2.585034 0.000001 0.000000 -0.000000 3.067600 6.409515 9.283637 0.000001 0.000000 -0.000000 -3.067604 6.409515 9.283527 0.000001 0.000000 -0.000000 4.570397 10.945956 -2.628021 0.540834 -5.077370 -13.029380 10.592395 -0.524582 -2.232123 -52.265055 -36.478514 -11.693192 27.841505 0.000014 -0.000000 -3.282218 -97.375248 -3.255109 28.328789 0.000014 0.000016 47.437911 29.601449 56.536785 2.466176 -1.576209 2.681693 -32.438693 -9.019504 11.382193 3.229830 -1.864719 1.864709 10.537409 10.748733 5.625025 2.652635 -1.531493 1.531487 0.000004 0.000001 0.000002 1.954605 -1.128480 1.128489 0.000001 0.000001 0.000000 9.109311 -0.518124 2.259870 -6.158512 -5.679909 1.001393 3.676371 0.000001 0.000016 0.736547 1.726173 -19.923339 2.883083 -0.000011 -0.000004 -0.000004 0.000002 -0.000008 2.392701 0.000002 -0.000003 -0.000001 -0.000000 -0.000000 9.533457 0.000002 -0.000008 -0.504631 1.355743 -4.017873 3.698169 -0.000031 0.000003 -0.029516 -0.620770 -16.552284 2.950908 -0.000005 -0.000007 0.000007 -0.000001 0.000011 2.833907 0.000016 0.000005 0.000001 0.000000 0.000000 9.104559 -0.043072 -1.865129 0.224257 10.269082 -12.432337 3.154016 -0.000006 -0.000009 -0.075214 0.872635 -3.901298 2.937676 -0.000001 0.000002 0.000000 0.000001 -0.000000 2.647427 -0.000032 -0.000005 0.000000 0.000000 0.000001 8.077845 -0.486961 -3.806327 3.050187 14.015608 -22.040821 3.600012 0.000013 -0.000005 -0.355731 0.498542 -0.033163 2.114178 -0.000014 -0.000007 -0.000000 0.000000 -0.000002 1.975727 -0.000029 0.000002 -0.000000 0.000000 0.000002 -4.570004 10.946180 -2.628020 -22.958069 7.110923 -18.909474 -10.592796 -0.524827 -2.232102 -58.428983 8.908237 15.793510 -27.841503 0.000006 0.000003 -3.937940 96.082095 3.915846 -28.328802 0.000030 -0.000001 27.811274 -29.903422 -37.579564 -8.076670 -0.486730 -3.806249 1.960067 -26.167778 7.964201 -3.599975 -0.000007 0.000010 -0.011650 0.922502 9.198968 -2.114200 -0.000032 -0.000001 -0.000000 -0.000000 0.000001 -1.975741 0.000032 -0.000002 -0.000000 -0.000000 0.000001 -9.103584 -0.043041 -1.865131 -1.508402 -15.990941 2.137266 -3.153983 -0.000010 -0.000000 -0.155948 0.134135 19.421218 -2.937675 -0.000032 0.000000 0.000000 0.000000 -0.000000 -2.647498 0.000001 -0.000002 -0.000000 0.000000 -0.000000 -9.532493 0.000013 -0.000019 0.054788 -7.242101 -2.354322 -3.698170 -0.000005 0.000003 -0.243343 1.030482 19.360315 -2.950936 -0.000006 -0.000005 -0.000002 0.000000 0.000003 -2.833912 -0.000029 -0.000003 -0.000000 -0.000001 0.000002 -9.108272 -0.517848 2.259841 -4.428054 6.576784 0.630625 -3.676385 -0.000010 0.000002 0.049912 -0.570746 5.172436 -2.883098 -0.000001 0.000015 0.000008 -0.000011 -0.000010 -2.392668 0.000013 -0.000000 0.000000 -0.000001 -0.000001 -2.464762 -1.573936 2.681866 -39.613697 -0.028540 -7.741920 -3.229782 -1.864700 1.864722 6.343980 -0.854686 -9.207307 -2.652563 -1.531457 1.531448 0.000002 -0.000006 -0.000004 -1.954605 -1.128509 1.128488 -0.000002 -0.000001 -0.000000 8.207800 -6.751691 -1.599593 -69.451262 -14.629130 6.540349 0.000002 -44.370502 0.284603 115.989671 -1.438996 -2.431326 -0.000001 -44.427937 -2.982194 -17.654248 1.953426 -0.151034 -0.000001 -8.728706 10.710598 -32.793845 5.280999 -23.106757 -0.000000 -0.000718 9.278100 0.000004 -0.000000 -0.000000 -8.207799 -6.751692 -1.599589 -71.757257 2.623258 -1.461429 -0.000003 -44.370499 0.286230 113.688410 2.780579 2.253467 0.000001 -44.427681 -2.983801 19.189531 6.932125 17.647247 -0.000005 -8.728690 10.710591 -18.310272 0.224586 0.283201 -0.000000 -0.000706 9.278108 -0.000001 -0.000000 -0.000001 
18.983921 49.122059 251.782867 58.208586 3.514049 -5.294474 0.000001 10.181613 0.131493 15.470052 1.031617 1.443787 0.000003 10.083464 -1.000803 30.968959 0.961045 0.457561 -0.000000 9.099977 -1.373404 30.968908 0.961042 0.457564 -0.000005 16.671722 -2.516232 0.174439 -3.224427 -8.285029 0.000003 9.617889 1.685032 17.619919 -2.285632 3.441815 -0.000008 17.815201 2.584961 -0.000001 0.000000 0.000000 3.067597 6.409500 9.283574 -0.000001 0.000000 0.000000 -3.067611 6.409515 9.283441 -0.000001 0.000000 0.000000 4.570399 10.946009 -2.628024 0.545412 -4.988204 -12.883051 10.592392 -0.524591 -2.232095 -53.020873 -36.995228 -11.899882 27.841494 -0.000002 0.000011 -3.436726 -97.054625 -3.410747 28.328808 -0.000014 0.000004 47.014808 29.605865 56.174836 2.466084 -1.576209 2.681686 -32.438693 -9.019498 11.382198 3.229784 -1.864720 1.864719 10.537387 10.748736 5.625025 2.652565 -1.531491 1.531488 0.000004 -0.000000 0.000003 1.954569 -1.128479 1.128494 -0.000001 -0.000000 -0.000001 9.109261 -0.518107 2.259861 -6.158511 -5.679934 1.001392 3.676363 -0.000001 -0.000003 0.736545 1.726183 -19.923337 2.883118 -0.000011 -0.000005 -0.000003 0.000003 -0.000006 2.392687 -0.000001 -0.000015 -0.000002 -0.000001 -0.000001 9.533364 0.000019 -0.000013 -0.504632 1.355751 -4.017869 3.698193 -0.000017 0.000005 -0.029514 -0.620775 -16.552284 2.950909 -0.000017 -0.000011 0.000008 -0.000002 0.000011 2.833879 0.000001 -0.000006 -0.000000 0.000001 -0.000000 9.104458 -0.043076 -1.865128 0.224255 10.269097 -12.432326 3.154006 -0.000027 0.000005 -0.075218 0.872652 -3.901304 2.937728 -0.000003 0.000003 0.000000 0.000001 -0.000003 2.647506 -0.000003 0.000001 0.000000 -0.000000 -0.000003 8.077750 -0.486985 -3.806326 3.050188 14.015620 -22.040819 3.599988 -0.000014 -0.000004 -0.355728 0.498525 -0.033149 2.114208 0.000014 -0.000007 0.000000 -0.000001 -0.000001 1.975680 -0.000015 0.000003 -0.000000 0.000000 0.000002 -4.570005 10.946198 -2.628030 -22.957575 7.090891 -18.835213 -10.592806 -0.524783 -2.232103 -58.968985 9.610488 15.021521 -27.841503 -0.000028 -0.000019 -4.730948 95.012070 4.712936 -28.328796 0.000041 0.000013 27.263537 -29.420500 -37.382322 -8.076672 -0.486727 -3.806232 1.960067 -26.167781 7.964200 -3.600019 -0.000027 0.000011 -0.011648 0.922512 9.198959 -2.114165 -0.000018 -0.000005 0.000001 0.000001 -0.000001 -1.975745 0.000035 0.000006 -0.000001 0.000000 -0.000001 -9.103605 -0.043053 -1.865128 -1.508404 -15.990945 2.137263 -3.154007 0.000021 0.000000 -0.155945 0.134142 19.421218 -2.937711 -0.000013 -0.000001 -0.000000 -0.000000 -0.000001 -2.647500 -0.000013 0.000001 -0.000000 -0.000000 -0.000003 -9.532486 0.000012 -0.000010 0.054789 -7.242098 -2.354322 -3.698178 -0.000007 0.000003 -0.243345 1.030485 19.360320 -2.950881 -0.000001 -0.000000 -0.000001 0.000000 0.000006 -2.833874 0.000002 -0.000006 0.000001 -0.000002 -0.000001 -9.108291 -0.517865 2.259857 -4.428057 6.576795 0.630626 -3.676407 0.000005 -0.000007 0.049915 -0.570749 5.172438 -2.883038 -0.000000 0.000002 0.000008 -0.000012 -0.000010 -2.392717 -0.000014 -0.000004 0.000000 0.000001 0.000000 -2.464814 -1.573943 2.681866 -39.613704 -0.028536 -7.741904 -3.229761 -1.864688 1.864720 6.343981 -0.854695 -9.207313 -2.652563 -1.531457 1.531451 0.000001 -0.000004 -0.000004 -1.954635 -1.128509 1.128492 -0.000003 -0.000000 -0.000000 8.207801 -6.751690 -1.599610 -69.718452 -14.961939 6.260371 0.000001 -44.370510 0.284603 116.100621 -1.411477 -2.428353 0.000000 -44.427868 -2.982198 -17.771235 1.614891 -0.428976 -0.000001 -8.728685 10.710597 -34.587135 5.044785 -21.678484 0.000000 -0.000709 9.278099 -0.000001 0.000000 -0.000000 -8.207798 -6.751691 -1.599598 -71.202987 2.385351 -1.628684 0.000001 -44.370510 0.286204 113.748270 2.797847 2.253761 -0.000002 -44.427650 -2.983805 17.363936 6.510842 17.417028 0.000004 -8.728664 10.710590 -20.421378 0.251071 0.168451 0.000005 -0.000686 9.278094 -0.000000 -0.000000 0.000000 
